<svg xmlns="http://www.w3.org/2000/svg" xmlns:xlink="http://www.w3.org/1999/xlink" width="103.423" height="20.001" viewBox="0 0 103.423 20.001">
  <defs>
    <clipPath id="clip-path">
      <rect id="Rectangle_51" data-name="Rectangle 51" width="103.423" height="20.001" transform="translate(0 11.765)" fill="#fff"/>
    </clipPath>
    <clipPath id="clip-path-2">
      <rect id="Rectangle_50" data-name="Rectangle 50" width="103.423" height="20.001" fill="#fff"/>
    </clipPath>
  </defs>
  <g id="Discord-Logo_Wordmark-White" data-name="Discord-Logo+Wordmark-White" transform="translate(0 -11.765)" clip-path="url(#clip-path)">
    <g id="Group_128" data-name="Group 128" transform="translate(0 11.765)" clip-path="url(#clip-path-2)">
      <path id="Path_31" data-name="Path 31" d="M21.887,13.44a21.044,21.044,0,0,0-5.331-1.675,15.631,15.631,0,0,0-.683,1.418,19.573,19.573,0,0,0-5.908,0,15.153,15.153,0,0,0-.691-1.418,20.974,20.974,0,0,0-5.335,1.679A22.356,22.356,0,0,0,.11,28.414a21.312,21.312,0,0,0,6.538,3.35,16.259,16.259,0,0,0,1.4-2.306,13.769,13.769,0,0,1-2.2-1.073c.185-.137.366-.28.541-.428a15.066,15.066,0,0,0,13.072,0c.177.147.358.291.541.428a13.734,13.734,0,0,1-2.209,1.075,16.188,16.188,0,0,0,1.4,2.306,21.27,21.27,0,0,0,6.542-3.352A22.334,22.334,0,0,0,21.887,13.44ZM8.627,25.4A2.508,2.508,0,0,1,6.3,22.757a2.5,2.5,0,0,1,2.323-2.644,2.479,2.479,0,0,1,2.323,2.644A2.492,2.492,0,0,1,8.627,25.4Zm8.584,0a2.508,2.508,0,0,1-2.323-2.642,2.5,2.5,0,0,1,2.323-2.644,2.479,2.479,0,0,1,2.323,2.644A2.493,2.493,0,0,1,17.211,25.4Z" transform="translate(0 -11.765)" fill="#fff"/>
      <path id="Path_32" data-name="Path 32" d="M98.029,26.171h5.548a8.1,8.1,0,0,1,3.394.639,4.579,4.579,0,0,1,2.077,1.779,4.946,4.946,0,0,1,.691,2.609,4.716,4.716,0,0,1-2.91,4.459,8.665,8.665,0,0,1-3.65.683h-5.15Zm5.093,7.585a2.9,2.9,0,0,0,2.077-.689,2.475,2.475,0,0,0,.726-1.883,2.413,2.413,0,0,0-.646-1.764,2.625,2.625,0,0,0-1.955-.662h-1.736v5Z" transform="translate(-63.308 -21.068)" fill="#fff"/>
      <path id="Path_33" data-name="Path 33" d="M150.754,38.685a7.435,7.435,0,0,1-2.077-.886V35.387a5.686,5.686,0,0,0,1.872.909,7.825,7.825,0,0,0,2.27.355,1.72,1.72,0,0,0,.774-.137c.175-.091.262-.2.262-.328a.5.5,0,0,0-.142-.363,1.216,1.216,0,0,0-.555-.247l-1.707-.392a4.364,4.364,0,0,1-2.083-.967,2.347,2.347,0,0,1-.077-3.087,3.434,3.434,0,0,1,1.536-.965,7.181,7.181,0,0,1,2.333-.342,8.622,8.622,0,0,1,2.191.262,6.012,6.012,0,0,1,1.65.668v2.281a6.065,6.065,0,0,0-1.545-.648,6.778,6.778,0,0,0-1.8-.239q-1.338,0-1.337.465a.349.349,0,0,0,.207.326,3.373,3.373,0,0,0,.76.226l1.422.262a4.139,4.139,0,0,1,2.077.863,2.332,2.332,0,0,1,.683,1.825,2.424,2.424,0,0,1-1.13,2.1,5.62,5.62,0,0,1-3.209.778A9.336,9.336,0,0,1,150.754,38.685Z" transform="translate(-96.017 -23.426)" fill="#fff"/>
      <path id="Path_34" data-name="Path 34" d="M178.495,38.383a4.291,4.291,0,0,1-1.841-1.656,4.554,4.554,0,0,1-.618-2.354,4.2,4.2,0,0,1,2.518-3.958,6.835,6.835,0,0,1,2.959-.587,6.377,6.377,0,0,1,3.542.915V33.4a4.4,4.4,0,0,0-1.159-.567,4.5,4.5,0,0,0-1.416-.218,3.715,3.715,0,0,0-2.069.494,1.494,1.494,0,0,0-.748,1.293,1.512,1.512,0,0,0,.725,1.287,3.691,3.691,0,0,0,2.105.5,4.834,4.834,0,0,0,1.4-.21,5.162,5.162,0,0,0,1.187-.517v2.572a6.8,6.8,0,0,1-3.628.959A6.631,6.631,0,0,1,178.495,38.383Z" transform="translate(-113.686 -23.43)" fill="#fff"/>
      <path id="Path_35" data-name="Path 35" d="M206.912,38.376a4.37,4.37,0,0,1-2.526-4.039A4.266,4.266,0,0,1,205.034,32a4.365,4.365,0,0,1,1.872-1.607,7.607,7.607,0,0,1,5.832,0,4.163,4.163,0,0,1,2.5,3.938,4.5,4.5,0,0,1-.64,2.368,4.4,4.4,0,0,1-1.872,1.671,7.25,7.25,0,0,1-5.818,0Zm4.322-2.578a1.917,1.917,0,0,0,.52-1.4,1.859,1.859,0,0,0-.52-1.387,1.914,1.914,0,0,0-1.414-.517,1.941,1.941,0,0,0-1.431.517,1.869,1.869,0,0,0-.518,1.387,1.809,1.809,0,0,0,1.949,1.932A1.9,1.9,0,0,0,211.235,35.8Z" transform="translate(-131.995 -23.422)" fill="#fff"/>
      <path id="Path_36" data-name="Path 36" d="M245.941,30.7v3.138a2.476,2.476,0,0,0-1.408-.363,2.193,2.193,0,0,0-1.75.7,3.277,3.277,0,0,0-.612,2.188v2.673h-3.485v-8.5H242.1v2.7a4.528,4.528,0,0,1,.918-2.188,2.089,2.089,0,0,1,1.628-.7A2.341,2.341,0,0,1,245.941,30.7Z" transform="translate(-154.146 -23.77)" fill="#fff"/>
      <path id="Path_37" data-name="Path 37" d="M271.886,25.35V35.812H268.4v-1.9a3.369,3.369,0,0,1-1.343,1.636,4.168,4.168,0,0,1-2.227.558,3.625,3.625,0,0,1-2.063-.587,3.853,3.853,0,0,1-1.359-1.613,5.443,5.443,0,0,1-.478-2.319,5.233,5.233,0,0,1,.506-2.4,3.909,3.909,0,0,1,3.622-2.252,3.267,3.267,0,0,1,3.343,2.209V25.35Zm-4.006,7.506a1.85,1.85,0,0,0,.532-1.372,1.771,1.771,0,0,0-.518-1.322,2.2,2.2,0,0,0-2.823.008,1.794,1.794,0,0,0-.526,1.343,1.819,1.819,0,0,0,.526,1.351,1.891,1.891,0,0,0,1.394.523A1.931,1.931,0,0,0,267.881,32.856Z" transform="translate(-168.511 -20.538)" fill="#fff"/>
      <path id="Path_38" data-name="Path 38" d="M136.214,27.63a1.6,1.6,0,1,0-1.738-1.594A1.671,1.671,0,0,0,136.214,27.63Z" transform="translate(-86.846 -19.952)" fill="#fff"/>
      <path id="Path_39" data-name="Path 39" d="M134.472,36.543a4.377,4.377,0,0,0,3.475,0v6.543h-3.475Z" transform="translate(-86.843 -27.767)" fill="#fff"/>
    </g>
  </g>
</svg>
