<svg xmlns="http://www.w3.org/2000/svg" width="50" height="50" viewBox="0 0 50 50">
  <g id="Server" transform="translate(-475 -1961)">
    <g id="Ellipse_10" data-name="Ellipse 10" transform="translate(475 1961)" fill="none" stroke="#fff" stroke-width="2">
      <circle cx="25" cy="25" r="25" stroke="none"/>
      <circle cx="25" cy="25" r="24" fill="none"/>
    </g>
    <g id="Icon_feather-server" data-name="Icon feather-server" transform="translate(488 1974)">
      <path id="Path_11" data-name="Path 11" d="M4.8,3H19.2A1.8,1.8,0,0,1,21,4.8V8.4a1.8,1.8,0,0,1-1.8,1.8H4.8A1.8,1.8,0,0,1,3,8.4V4.8A1.8,1.8,0,0,1,4.8,3Z" fill="none" stroke="#fff" stroke-linecap="round" stroke-linejoin="round" stroke-width="2"/>
      <path id="Path_12" data-name="Path 12" d="M4.8,21H19.2A1.8,1.8,0,0,1,21,22.8v3.6a1.8,1.8,0,0,1-1.8,1.8H4.8A1.8,1.8,0,0,1,3,26.4V22.8A1.8,1.8,0,0,1,4.8,21Z" transform="translate(0 -7.2)" fill="none" stroke="#fff" stroke-linecap="round" stroke-linejoin="round" stroke-width="2"/>
      <path id="Path_13" data-name="Path 13" d="M9,9H9" transform="translate(-2.4 -2.4)" fill="none" stroke="#fff" stroke-linecap="round" stroke-linejoin="round" stroke-width="2"/>
      <path id="Path_14" data-name="Path 14" d="M9,27H9" transform="translate(-2.4 -9.6)" fill="none" stroke="#fff" stroke-linecap="round" stroke-linejoin="round" stroke-width="2"/>
    </g>
  </g>
</svg>
