<svg xmlns="http://www.w3.org/2000/svg" width="50" height="50" viewBox="0 0 50 50">
  <g id="Messages" transform="translate(-475 -1961)">
    <g id="Ellipse_10" data-name="Ellipse 10" transform="translate(475 1961)" fill="none" stroke="#fff" stroke-width="2">
      <circle cx="25" cy="25" r="25" stroke="none"/>
      <circle cx="25" cy="25" r="24" fill="none"/>
    </g>
    <g id="Icon_feather-package" data-name="Icon feather-package" transform="translate(486.499 1972.957)">
      <path id="Path_7" data-name="Path 7" d="M20.251,11.506l-9-5.191" transform="translate(-2.249 -1.104)" fill="none" stroke="#fff" stroke-linecap="round" stroke-linejoin="round" stroke-width="2"/>
      <path id="Path_8" data-name="Path 8" d="M22.5,17V9a2,2,0,0,0-1-1.73l-7-4a2,2,0,0,0-2,0l-7,4A2,2,0,0,0,4.5,9v8a2,2,0,0,0,1,1.73l7,4a2,2,0,0,0,2,0l7-4a2,2,0,0,0,1-1.73Z" transform="translate(0)" fill="none" stroke="#fff" stroke-linecap="round" stroke-linejoin="round" stroke-width="2"/>
      <path id="Path_9" data-name="Path 9" d="M4.9,10.44l8.731,5.051,8.731-5.051" transform="translate(-0.135 -2.478)" fill="none" stroke="#fff" stroke-linecap="round" stroke-linejoin="round" stroke-width="2"/>
      <path id="Path_10" data-name="Path 10" d="M18,28.081V18" transform="translate(-4.499 -4.998)" fill="none" stroke="#fff" stroke-linecap="round" stroke-linejoin="round" stroke-width="2"/>
    </g>
  </g>
</svg>
